# xmcd
#
# Track frame offsets:
#	150
#	18971
#	38008
#	52526
#	68092
#	83664
#	101102
#	117034
#	133381
#	147629
#	162825
#	179891
#
# Disc length: 2695 seconds
# Revision: 4
# Processed by: cddbd v1.5.2PL0 Copyright (c) Steve Scherf et al.
# Submitted via: dBpowerAMP V12.0
#
DISCID=a10a850c
DTITLE=Brian Houser - Never Look Back
DYEAR=2003
DGENRE=Country
TTITLE0=River Run Dry
TTITLE1=Long Lost Woman
TTITLE2=Someone Like You
TTITLE3=Santa Fe Trail
TTITLE4=Harvest
TTITLE5=To Hold On To You
TTITLE6=The Dog Is Mine
TTITLE7=Eyes Of A Stranger
TTITLE8=Roll Along
TTITLE9=Tryin' Hard
TTITLE10=Rose Garden
TTITLE11=Makin' Me Blue
EXTD=
EXTT0=
EXTT1=
EXTT2=
EXTT3=
EXTT4=
EXTT5=
EXTT6=
EXTT7=
EXTT8=
EXTT9=
EXTT10=
EXTT11=
PLAYORDER=
